<?xml version="1.0" encoding="UTF-8"?>
<svg version="1.1" xmlns="http://www.w3.org/2000/svg" width="512" height="512">
<path d="M0 0 C3.46131059 1.90789108 4.30480167 3.78371192 6.09375 7.3046875 C6.41561279 7.93238037 6.73747559 8.56007324 7.0690918 9.20678711 C12.4059877 19.79148828 17.26101065 30.6357181 22.18676758 41.41625977 C22.65107178 42.41069092 23.11537598 43.40512207 23.59375 44.4296875 C23.9144043 45.5012207 24.23505859 46.57275391 24.56542969 47.67675781 C26.95372654 50.91826423 27.73197588 51.01138577 31.55249023 51.79760742 C33.66526888 52.11209602 35.78246477 52.39776384 37.90234375 52.66015625 C39.0206105 52.8221199 40.13887726 52.98408356 41.29103088 53.1509552 C44.86803573 53.66537333 48.44867237 54.14327361 52.03125 54.6171875 C55.60921141 55.10704605 59.18573881 55.60465534 62.76075745 56.11555481 C64.98588182 56.431848 67.21290606 56.73510749 69.4417572 57.02397156 C70.45283035 57.16454483 71.4639035 57.3051181 72.50561523 57.44995117 C73.3936937 57.56731125 74.28177216 57.68467133 75.19676208 57.80558777 C77.94774595 58.52185683 79.51094071 59.51079831 81.59375 61.4296875 C82.19140625 63.75390625 82.19140625 63.75390625 81.59375 66.4296875 C79.79279319 68.5736837 78.08031665 70.36896447 76.03125 72.2421875 C74.98552145 73.22493616 73.94258645 74.21066513 72.90234375 75.19921875 C72.35908447 75.71258789 71.8158252 76.22595703 71.25610352 76.75488281 C69.49226887 78.53192873 67.92824073 80.40832805 66.3359375 82.33984375 C63.67047994 85.46773322 60.92925683 87.70946727 57.54296875 90.03125 C51.62574498 94.37091388 46.51437126 98.54053689 43.59375 105.4296875 C42.17419853 116.54255507 45.87271965 128.50051275 48.56152344 139.19897461 C52.53240225 155.07691153 52.53240225 155.07691153 51.59375 162.4296875 C49.90625 164.4296875 49.90625 164.4296875 47.59375 165.4296875 C43.2541128 164.9853094 40.02986971 163.22216611 36.25390625 161.11328125 C35.65049911 160.77853287 35.04709198 160.44378448 34.42539978 160.09889221 C32.49876397 159.02794981 30.57753945 157.94768605 28.65625 156.8671875 C27.40072606 156.1680171 26.1448691 155.46944436 24.88867188 154.77148438 C23.63537994 154.07298257 22.38212471 153.37441488 21.12890625 152.67578125 C20.50859528 152.33139008 19.8882843 151.9869989 19.24917603 151.63217163 C16.02660064 149.83268738 12.84747261 147.98626603 9.70654297 146.04736328 C9.07807968 145.66677261 8.44961639 145.28618195 7.80210876 144.89405823 C6.06510325 143.83828283 4.33965086 142.76356735 2.61499023 141.68774414 C-0.2785614 140.13549415 -0.2785614 140.13549415 -2.95361328 141.03662109 C-4.16766846 141.72618896 -4.16766846 141.72618896 -5.40625 142.4296875 C-6.74296753 143.10753296 -6.74296753 143.10753296 -8.10668945 143.79907227 C-9.06792725 144.31783936 -10.02916504 144.83660645 -11.01953125 145.37109375 C-12.09565674 145.95109131 -13.17178223 146.53108887 -14.28051758 147.12866211 C-15.41513428 147.74362549 -16.54975098 148.35858887 -17.71875 148.9921875 C-19.46031372 149.92913452 -19.46031372 149.92913452 -21.23706055 150.88500977 C-26.36552776 153.65329143 -31.4751928 156.4376286 -36.5 159.390625 C-37.22662842 159.81529053 -37.95325684 160.23995605 -38.7019043 160.67749023 C-40.00796727 161.44791087 -41.30691561 162.23057644 -42.59692383 163.02758789 C-45.31304961 164.62928807 -47.01080972 165.45125697 -50.19921875 165.27734375 C-52.40625 164.4296875 -52.40625 164.4296875 -54.40625 162.4296875 C-54.94523234 154.54812017 -52.8602414 146.96175416 -50.8984375 139.4140625 C-45.19416007 120.06193522 -45.19416007 120.06193522 -48.41992188 101.078125 C-53.61091061 93.52410674 -61.00361267 87.98741344 -68.38549805 82.7121582 C-71.7640785 80.15931341 -74.37890303 77.42766281 -77.00952148 74.13061523 C-78.4942889 72.32247424 -80.11544626 70.81601431 -81.84375 69.2421875 C-84.40625 66.4296875 -84.40625 66.4296875 -85.03125 63.7421875 C-84.20495762 60.68490569 -83.06998453 60.07758592 -80.40625 58.4296875 C-78.04290771 57.87287903 -78.04290771 57.87287903 -75.39746094 57.60864258 C-74.40252625 57.50034622 -73.40759155 57.39204987 -72.38250732 57.2804718 C-71.31268616 57.17115829 -70.24286499 57.06184479 -69.140625 56.94921875 C-66.86542324 56.67107255 -64.59069299 56.38904708 -62.31640625 56.10351562 C-58.73944327 55.6624631 -55.16635853 55.24318317 -51.57958984 54.88989258 C-38.81698531 54.1370855 -38.81698531 54.1370855 -27.62121582 48.88110352 C-24.78959592 45.14714915 -23.36978604 41.01806136 -22.06872559 36.55636597 C-21.02153602 33.19467907 -19.46057971 30.11179803 -17.921875 26.953125 C-16.55058122 23.95973073 -15.18233835 20.96504054 -13.82275391 17.96630859 C-13.00612581 16.1681977 -12.18282292 14.37312298 -11.359375 12.578125 C-10.88661133 11.53833496 -10.41384766 10.49854492 -9.92675781 9.42724609 C-4.59264992 -1.08851767 -4.59264992 -1.08851767 0 0 Z " fill="#000000" transform="translate(257.40625,173.5703125)"/>
<path d="M0 0 C0.928125 0.0825 1.85625 0.165 2.8125 0.25 C5.25761802 5.60343189 6.97693298 10.93746779 8.51171875 16.61328125 C8.7516304 17.48647507 8.99154205 18.35966888 9.23872375 19.25932312 C9.74103538 21.0915841 10.24093336 22.92450833 10.73852539 24.75805664 C11.50278522 27.57275773 12.275202 30.38512608 13.04882812 33.19726562 C13.53693615 34.9816402 14.02458289 36.76614103 14.51171875 38.55078125 C14.74291916 39.39345047 14.97411957 40.23611969 15.21232605 41.10432434 C16.8125 47.01788422 16.8125 47.01788422 16.8125 49.25 C17.36398209 49.3624707 17.91546417 49.47494141 18.48365784 49.59082031 C23.88571485 50.73546759 29.06007513 52.20038525 34.27734375 54 C35.03672745 54.2587793 35.79611115 54.51755859 36.57850647 54.78417969 C38.16490008 55.32636109 39.75046241 55.87098058 41.33520508 56.41796875 C43.76572654 57.25541867 46.20000351 58.08122171 48.63476562 58.90625 C50.18252913 59.43680777 51.73006384 59.96803357 53.27734375 60.5 C54.00436996 60.74588867 54.73139618 60.99177734 55.48045349 61.24511719 C60.58290031 63.02040031 60.58290031 63.02040031 62.8125 65.25 C63.17578125 67.65625 63.17578125 67.65625 62.8125 70.25 C61.29296875 72.03125 61.29296875 72.03125 59 73.75 C57.64648438 74.76900391 57.64648438 74.76900391 56.265625 75.80859375 C51.19231304 79.43524312 46.03460156 82.94645089 40.85424805 86.41796875 C35.93537103 89.72607778 31.2435791 93.2025198 26.64477539 96.94506836 C24.8125 98.25 24.8125 98.25 22.8125 98.25 C22.81773682 99.40411377 22.82297363 100.55822754 22.82836914 101.74731445 C22.84662808 106.07673348 22.85800751 110.40614918 22.86743164 114.7355957 C22.8724245 116.6005104 22.87922112 118.46542126 22.88793945 120.33032227 C22.99975051 144.88271577 22.99975051 144.88271577 21.8125 149.25 C18.8125 151.25 18.8125 151.25 16.37109375 151.0859375 C13.44211378 150.12898832 12.07801809 149.01258191 9.875 146.875 C5.47537136 142.78283293 0.8793961 139.07203416 -3.88134766 135.41552734 C-6.75232582 133.20130383 -9.5468803 130.96865685 -12.21484375 128.51171875 C-13.13394531 127.68285156 -14.05304688 126.85398437 -15 126 C-15.79019531 125.25234375 -16.58039063 124.5046875 -17.39453125 123.734375 C-21.44983924 121.57910642 -24.7968701 122.38831563 -29.1875 123.25 C-34.42663702 100.1384494 -34.42663702 100.1384494 -32.50830078 94.11865234 C-30.83788644 91.52679303 -28.73638192 89.96961577 -26.19921875 88.26953125 C-22.8222257 86.0050625 -20.66311854 83.47896993 -18.05932617 80.39282227 C-16.17833134 78.23950394 -14.20929507 76.26197415 -12.14453125 74.28515625 C-11.46326172 73.62966797 -10.78199219 72.97417969 -10.08007812 72.29882812 C-8.68915861 70.97059794 -7.29063093 69.6502912 -5.88476562 68.33789062 C-0.28128894 62.90502407 3.30140171 57.4848144 4.25 49.625 C3.46198524 43.54602899 1.08119513 38.64065784 -3.1875 34.25 C-8.80368398 30.50587734 -15.67767238 29.61184821 -22.1875 28.25 C-19.17188853 22.74923401 -15.77357017 17.66154469 -12.125 12.5625 C-11.59583984 11.81677734 -11.06667969 11.07105469 -10.52148438 10.30273438 C-9.08347804 8.28014328 -7.64318162 6.25990784 -6.1875 4.25 C-5.70095947 3.51547607 -5.21441895 2.78095215 -4.71313477 2.02416992 C-3.1875 0.25 -3.1875 0.25 0 0 Z " fill="#000000" transform="translate(349.1875,187.75)"/>
<path d="M0 0 C5.20194602 1.1332811 6.9441303 4.8764472 9.78125 9.15234375 C10.32394531 9.93544922 10.86664063 10.71855469 11.42578125 11.52539062 C13.06817256 13.90666204 14.67867475 16.30662605 16.28125 18.71484375 C16.85617188 19.57480957 17.43109375 20.43477539 18.0234375 21.32080078 C19.44557951 23.45025814 20.86481962 25.58158476 22.28125 27.71484375 C19.00458661 29.89928601 16.80614549 30.30589569 12.96875 31.02734375 C5.97620077 32.57519391 2.64755755 34.36937446 -1.53125 40.27734375 C-4.26150778 45.88155709 -4.51392017 51.14223436 -2.65625 57.15234375 C0.99672045 64.82029073 8.30422656 70.85232267 14.28125 76.71484375 C18.93279107 81.27727484 23.41553066 85.8920084 27.640625 90.85546875 C29.28148229 92.81368744 29.28148229 92.81368744 31.51464844 94.55566406 C33.28125 96.71484375 33.28125 96.71484375 33.36816406 99.64746094 C33.08537598 101.31276855 33.08537598 101.31276855 32.796875 103.01171875 C32.50683594 104.81962891 32.50683594 104.81962891 32.2109375 106.6640625 C31.98664063 107.91832031 31.76234375 109.17257812 31.53125 110.46484375 C31.32242188 111.73457031 31.11359375 113.00429688 30.8984375 114.3125 C30.37936208 117.45054685 29.8396331 120.5835934 29.28125 123.71484375 C28.70334717 123.58754883 28.12544434 123.46025391 27.5300293 123.32910156 C23.1010567 122.55820856 21.02914638 122.26990419 17.05078125 124.63671875 C16.04323301 125.55601459 15.05818204 126.50041171 14.09375 127.46484375 C12.98286729 128.48828668 11.86949918 129.50903718 10.75390625 130.52734375 C10.18687988 131.05585938 9.61985352 131.584375 9.03564453 132.12890625 C6.15716501 134.73099406 3.10092084 137.09422333 0.03125 139.46484375 C-1.13962381 140.37070497 -2.31020501 141.27694454 -3.48046875 142.18359375 C-4.03138184 142.61027344 -4.58229492 143.03695312 -5.14990234 143.4765625 C-6.59894172 144.62027986 -8.01415951 145.80650198 -9.42578125 146.99609375 C-10.59173828 147.970625 -10.59173828 147.970625 -11.78125 148.96484375 C-12.43222656 149.526875 -13.08320313 150.08890625 -13.75390625 150.66796875 C-15.71875 151.71484375 -15.71875 151.71484375 -18.40234375 151.44921875 C-20.71875 150.71484375 -20.71875 150.71484375 -21.71875 149.71484375 C-23.5470993 139.37692775 -22.83012955 128.48295568 -22.78125 118.02734375 C-22.77622491 116.15039182 -22.77166379 114.27343859 -22.76757812 112.39648438 C-22.75665258 107.83590488 -22.73944357 103.27538896 -22.71875 98.71484375 C-23.29729736 98.43809814 -23.87584473 98.16135254 -24.47192383 97.8762207 C-35.41005818 92.22233554 -45.52339085 84.01772532 -55.40625 76.71484375 C-56.14254639 76.18785889 -56.87884277 75.66087402 -57.63745117 75.11791992 C-62.50737954 71.45303094 -62.50737954 71.45303094 -63.48828125 68.02734375 C-62.38469464 64.71098195 -60.81302308 64.31759095 -57.71875 62.71484375 C-54.85537866 61.56286699 -51.94702687 60.56568115 -49.0234375 59.578125 C-47.77954758 59.15166939 -47.77954758 59.15166939 -46.51052856 58.71659851 C-44.7649722 58.11970918 -43.01843841 57.52567148 -41.27099609 56.93432617 C-38.59329063 56.02718813 -35.91956176 55.10899458 -33.24609375 54.18945312 C-31.54710043 53.61001568 -29.84788897 53.03121735 -28.1484375 52.453125 C-27.34840302 52.17817703 -26.54836853 51.90322906 -25.72409058 51.61994934 C-22.61324091 50.57277991 -20.02465235 49.71484375 -16.71875 49.71484375 C-16.5228125 48.90789062 -16.326875 48.1009375 -16.125 47.26953125 C-13.87727988 38.1430125 -11.52780262 29.0428714 -9.13305664 19.95391846 C-8.77382587 18.58736981 -8.41656264 17.22030241 -8.0612793 15.85272217 C-7.55416566 13.90298007 -7.03894106 11.95535315 -6.5234375 10.0078125 C-6.22421387 8.86852295 -5.92499023 7.7292334 -5.61669922 6.55541992 C-4.45650701 2.88526323 -3.85993878 1.0148977 0 0 Z " fill="#000000" transform="translate(162.71875,187.28515625)"/>
<path d="M0 0 C2.96768383 2.32306398 2.85307174 4.69146355 3.40625 8.3671875 C3.53692871 9.09317139 3.66760742 9.81915527 3.80224609 10.56713867 C4.6504582 15.54341772 4.98737987 20.37904676 5.1015625 25.42578125 C5.29108087 38.17951796 5.29108087 38.17951796 11.31054688 48.80859375 C17.38386059 52.76010181 24.00978119 55.16910029 30.85839844 57.43847656 C34.90975446 58.83912159 38.62682783 60.67569805 42.40625 62.6796875 C43.99953125 63.47439453 43.99953125 63.47439453 45.625 64.28515625 C47.90625 65.4921875 47.90625 65.4921875 48.90625 66.4921875 C49.4140625 68.76953125 49.4140625 68.76953125 48.90625 71.4921875 C46.53087078 73.30995117 44.39266187 74.65417161 41.78125 76.0546875 C41.0380249 76.47741943 40.2947998 76.90015137 39.52905273 77.33569336 C35.06547468 79.85151165 30.5296804 82.1971507 25.94921875 84.4921875 C24.95615723 85.00193115 23.9630957 85.5116748 22.93994141 86.03686523 C20.98900514 87.03349389 19.02384335 88.00284368 17.04443359 88.94165039 C16.14418457 89.4030542 15.24393555 89.86445801 14.31640625 90.33984375 C13.51340088 90.73179932 12.71039551 91.12375488 11.88305664 91.52758789 C8.76319308 94.6281859 8.5450249 98.25057203 7.90625 102.4921875 C7.73700768 103.56925209 7.73700768 103.56925209 7.56434631 104.66807556 C7.24492367 106.83454216 6.96182938 109.00316818 6.6875 111.17578125 C6.47551453 112.77802843 6.26326766 114.38024105 6.05078125 115.98242188 C5.72499123 118.47281224 5.40192928 120.96349174 5.08349609 123.45483398 C4.77139445 125.88368573 4.44891967 128.31098155 4.125 130.73828125 C4.03222778 131.48718124 3.93945557 132.23608124 3.84387207 133.00767517 C3.13302447 138.26541303 3.13302447 138.26541303 0.90625 140.4921875 C-1.95263672 140.88793945 -1.95263672 140.88793945 -5.09375 140.4921875 C-7.30126953 138.68041992 -7.30126953 138.68041992 -9.3515625 136.16015625 C-10.12145508 135.24669434 -10.89134766 134.33323242 -11.68457031 133.39208984 C-12.47959961 132.43512207 -13.27462891 131.4781543 -14.09375 130.4921875 C-17.3203934 126.8659618 -20.63009419 123.32767034 -23.96875 119.8046875 C-24.78988281 118.88751953 -25.61101562 117.97035156 -26.45703125 117.02539062 C-31.01253694 112.11010358 -31.01253694 112.11010358 -37.17675781 110.13818359 C-39.91444932 110.38232291 -42.44060302 110.78546092 -45.09375 111.4921875 C-46.59044901 98.72035595 -46.59044901 98.72035595 -43.53515625 94.171875 C-41.42360274 92.48116838 -39.27094809 91.01483647 -36.94873047 89.62939453 C-33.84619807 87.72736822 -30.88068388 85.62606519 -27.88793945 83.55712891 C-26.22271953 82.410123 -24.55087636 81.2726595 -22.87182617 80.14599609 C-12.00798962 72.86900282 -12.00798962 72.86900282 -6.09375 61.4921875 C-5.26143247 55.66596477 -6.70710245 50.29630408 -10.09375 45.4921875 C-14.79790166 41.22769151 -20.06710753 39.11662837 -26.03125 37.1796875 C-26.81048828 36.91607422 -27.58972656 36.65246094 -28.39257812 36.38085938 C-30.28945983 35.74080727 -32.19113149 35.11497938 -34.09375 34.4921875 C-32.48980993 30.62440059 -29.86738988 27.86572394 -27.03125 24.8671875 C-26.03477014 23.79723447 -25.03868207 22.72691643 -24.04296875 21.65625 C-23.54587402 21.12418945 -23.0487793 20.59212891 -22.53662109 20.04394531 C-20.44838204 17.79811665 -18.39443698 15.52229729 -16.34375 13.2421875 C-15.62445313 12.44425781 -14.90515625 11.64632812 -14.1640625 10.82421875 C-11.58941543 7.92409743 -9.08361733 4.96794611 -6.6015625 1.98828125 C-4.48876961 -0.10809097 -2.91403934 -0.70676327 0 0 Z " fill="#000000" transform="translate(432.09375,197.5078125)"/>
<path d="M0 0 C3.83731944 2.04296725 6.28292955 4.87718479 9.1484375 8.1015625 C9.72424561 8.73602295 10.30005371 9.3704834 10.89331055 10.02416992 C12.53003941 11.83296693 14.15441551 13.65191677 15.7734375 15.4765625 C16.47339844 16.26417969 17.17335938 17.05179688 17.89453125 17.86328125 C18.98293589 19.10250409 20.06547494 20.34691636 21.140625 21.59765625 C22.39762771 23.04411152 23.67832171 24.470003 24.96875 25.88671875 C25.70867187 26.70011719 26.44859375 27.51351562 27.2109375 28.3515625 C28.22994141 29.46144531 28.22994141 29.46144531 29.26953125 30.59375 C30.7734375 32.4765625 30.7734375 32.4765625 30.7734375 34.4765625 C30.22405518 34.66766602 29.67467285 34.85876953 29.10864258 35.05566406 C26.59735638 35.93573948 24.09173409 36.83098239 21.5859375 37.7265625 C20.72162109 38.02691406 19.85730469 38.32726562 18.96679688 38.63671875 C13.4373812 40.62815581 8.72342795 42.45379793 5.41015625 47.58984375 C3.02426302 53.11765398 1.53468381 57.58906593 3.44458008 63.58276367 C5.86978312 69.57134465 8.66258315 72.69370462 13.9609375 76.2890625 C14.65203613 76.7826123 15.34313477 77.27616211 16.05517578 77.78466797 C18.28143438 79.36828492 20.52646817 80.92250799 22.7734375 82.4765625 C25.14239625 84.14559056 27.50736833 85.82016608 29.87231445 87.49487305 C31.36614531 88.54935131 32.86328569 89.59915986 34.36401367 90.64379883 C35.04310791 91.11712646 35.72220215 91.5904541 36.421875 92.078125 C37.02177246 92.49400879 37.62166992 92.90989258 38.23974609 93.33837891 C39.7734375 94.4765625 39.7734375 94.4765625 41.7734375 96.4765625 C41.91841735 99.05720379 41.96021295 101.52600134 41.8984375 104.1015625 C41.88941406 104.80796875 41.88039063 105.514375 41.87109375 106.2421875 C41.84751353 107.98712348 41.81164211 109.73188545 41.7734375 111.4765625 C41.14252197 111.2506543 40.51160645 111.02474609 39.86157227 110.79199219 C35.97317595 109.868336 32.64853888 109.33390886 29.08074951 111.50805664 C24.53557126 115.13798428 20.65022508 119.46525505 16.7109375 123.7265625 C15.47999169 125.00918244 14.24628846 126.28916205 13.00976562 127.56640625 C6.99931743 133.69727581 6.99931743 133.69727581 1.7734375 140.4765625 C-1.2265625 140.7890625 -1.2265625 140.7890625 -4.2265625 140.4765625 C-6.52737976 138.17574524 -6.5642147 137.49107533 -6.94091797 134.36572266 C-7.10151199 133.0939769 -7.10151199 133.0939769 -7.26535034 131.79653931 C-7.37372223 130.87883759 -7.48209412 129.96113586 -7.59375 129.015625 C-7.84197724 127.08066873 -8.09069034 125.14577473 -8.33984375 123.2109375 C-8.72359034 120.15472269 -9.10198705 117.09804605 -9.47119141 114.04003906 C-9.83049691 111.09230622 -10.21077916 108.14786319 -10.59375 105.203125 C-10.75023514 103.83264511 -10.75023514 103.83264511 -10.90988159 102.43447876 C-11.57534871 97.37108828 -11.57534871 97.37108828 -14.08178711 93.0078125 C-16.07739442 91.58306019 -17.98501319 90.34842787 -20.17578125 89.25 C-20.9339917 88.86287842 -21.69220215 88.47575684 -22.47338867 88.0769043 C-23.27881104 87.6725415 -24.0842334 87.26817871 -24.9140625 86.8515625 C-26.61340214 85.97279835 -28.31128761 85.09121727 -30.0078125 84.20703125 C-30.87019531 83.75763184 -31.73257813 83.30823242 -32.62109375 82.84521484 C-36.75222352 80.67513299 -40.84932452 78.45605417 -44.9140625 76.1640625 C-45.65035889 75.76815918 -46.38665527 75.37225586 -47.14526367 74.96435547 C-50.05906228 73.29462309 -51.94963822 72.19430502 -53.18359375 68.99609375 C-50.54070774 62.03829182 -39.07248533 58.86542918 -32.7890625 55.9140625 C-31.80357422 55.44548828 -30.81808594 54.97691406 -29.80273438 54.49414062 C-21.51928741 50.56924694 -21.51928741 50.56924694 -18.9466095 49.75466919 C-14.25061759 48.19310077 -14.25061759 48.19310077 -11.22489929 44.52635193 C-10.63645248 42.02035232 -10.33282527 39.60316233 -10.10546875 37.0390625 C-9.98977036 36.1219751 -9.87407196 35.2048877 -9.75486755 34.26000977 C-9.39355642 31.33530413 -9.08967445 28.40807054 -8.7890625 25.4765625 C-8.45166968 22.54752151 -8.10268258 19.62014299 -7.74827576 16.69311523 C-7.53203434 14.87375846 -7.32783227 13.05292054 -7.13710022 11.23071289 C-7.00071388 9.98922485 -7.00071388 9.98922485 -6.86157227 8.72265625 C-6.74906883 7.63488892 -6.74906883 7.63488892 -6.6342926 6.52514648 C-6.17427912 4.21387184 -5.44346296 2.49157323 -4.2265625 0.4765625 C-2.2265625 -0.5234375 -2.2265625 -0.5234375 0 0 Z " fill="#000000" transform="translate(83.2265625,197.5234375)"/>
</svg>
